<?xml version="1.0" encoding="UTF-8"?><svg id="Layer_2" xmlns="http://www.w3.org/2000/svg" viewBox="0 0 380.31 67.48"><defs><style>.cls-1{fill:#fff;}</style></defs><g id="Layer_1-2"><path class="cls-1" d="m0,.48h11.59c7.03,0,8.93,2.19,8.93,9.69v19.48c0,7.5-1.9,9.69-8.93,9.69H2.94v27.65H0V.48Zm11.4,36.29c5.7,0,6.18-2,6.18-8.17V11.21c0-6.18-.48-8.17-6.18-8.17H2.94v33.73h8.46Z"/><path class="cls-1" d="m49.21,55.29c0,4.27.29,8.36,1.05,11.69h-3.23c-.76-2.19-.76-6.18-.76-10.35v-13.87c0-6.18-.85-8.55-6.56-8.55h-8.93v32.78h-2.94V.48h12.45c7.03,0,8.93,2.19,8.93,9.69v13.4c0,5.89-1.23,8.55-5.13,9.41,3.9.85,5.13,3.42,5.13,9.31v13.02Zm-2.94-44.08c0-6.18-.38-8.17-6.18-8.17h-9.31v28.6h9.31c5.7,0,6.18-2,6.18-8.17v-12.25Z"/><path class="cls-1" d="m61.94,30.69h11.78v2.56h-11.78v31.16h13.4v2.56h-16.34V.48h16.34v2.56h-13.4v27.65Z"/><path class="cls-1" d="m85.5,56.72c0,6.18.38,8.17,6.18,8.17h3.14c5.79,0,6.17-2,6.17-8.17v-15.58h2.75v16.62c0,7.51-1.8,9.69-8.83,9.69h-3.42c-7.03,0-8.93-2.19-8.93-9.69V9.69c0-7.51,1.9-9.69,8.93-9.69h3.42c7.03,0,8.83,2.19,8.83,9.69v13.77h-2.75v-12.73c0-6.18-.38-8.17-6.17-8.17h-3.14c-5.79,0-6.18,1.99-6.18,8.17v45.98Z"/><path class="cls-1" d="m113.33.48h2.94v66.5h-2.94V.48Z"/><path class="cls-1" d="m142.5,49.59c0-6.75-.76-8.74-7.88-15.58-8.65-8.27-9.41-10.35-9.41-17.96v-6.36c0-7.51,1.9-9.69,8.93-9.69h2.47c7.03,0,8.84,2.19,8.84,9.69v12.83h-2.76v-11.78c0-6.18-.38-8.17-6.17-8.17h-2.19c-5.79,0-6.18,1.99-6.18,8.17v5.23c0,6.75.76,8.74,7.89,15.58,8.65,8.27,9.41,10.36,9.41,17.96v8.27c0,7.51-1.9,9.69-8.84,9.69h-2.56c-6.94,0-8.83-2.19-8.83-9.69v-14.73h2.75v13.68c0,6.18.38,8.17,6.18,8.17h2.19c5.79,0,6.17-2,6.17-8.17v-7.12Z"/><path class="cls-1" d="m154.37.48h2.94v66.5h-2.94V.48Z"/><path class="cls-1" d="m167.1,9.69c0-7.51,1.9-9.69,8.93-9.69h3.52c7.03,0,8.93,2.19,8.93,9.69v48.07c0,7.51-1.9,9.69-8.93,9.69h-3.52c-7.03,0-8.93-2.19-8.93-9.69V9.69Zm18.43,1.04c0-6.18-.38-8.17-6.17-8.17h-3.14c-5.79,0-6.18,1.99-6.18,8.17v45.98c0,6.18.38,8.17,6.18,8.17h3.14c5.79,0,6.17-2,6.17-8.17V10.74Z"/><path class="cls-1" d="m202.82,14.63c-.95-3.8-1.62-7.12-2.28-10.26.1,3.04.29,6.46.29,10.45v52.16h-2.66V.48h3.99l12.54,49.78c.95,3.8,1.62,7.12,2.28,10.26-.1-3.04-.29-6.46-.29-10.45V.48h2.66v66.5h-3.23l-13.3-52.35Z"/><path class="cls-1" d="m304.41,27.3h9.79v10.07h-9.79v19.57h12.07v10.07h-22.8V.51h22.8v10.07h-12.07v16.72Z"/><path class="cls-1" d="m328.92,67.01v-21L318.47.51h10.74l2.75,13.21c.95,4.66,2.28,11.97,2.95,19,.57-7.03,1.9-14.35,2.85-19l2.66-13.21h9.6l-10.45,45.51v21h-10.64Z"/><path class="cls-1" d="m369.58,48.96c0-5.6-1.71-7.5-8.17-13.02-7.22-6.27-9.79-9.6-9.79-18.81v-3.61c0-10.45,2.47-13.49,12.06-13.49h4.56c9.6,0,12.07,3.04,12.07,13.49v9.22h-10.07v-7.79c0-3.71-.38-4.85-3.42-4.85h-1.14c-3.13,0-3.42,1.14-3.42,4.66v2.28c0,5.6,1.71,7.41,8.17,13.02,7.22,6.37,9.88,9.6,9.88,18.81v5.13c0,10.45-2.56,13.49-12.07,13.49h-4.56c-9.59,0-12.06-3.04-12.06-13.49v-11.12h9.98v9.69c0,3.71.29,4.85,3.42,4.85h1.24c3.04,0,3.32-1.14,3.32-4.85v-3.61Z"/><path class="cls-1" d="m226.66.42v66.56h61V.42h-61Zm44.1,44.56l-3.69-12.84c-.31-1.04-.57-2.08-.83-3.43v16.28h-7.28V8.57h7.28v15.7c.31-1.25.47-1.87.73-2.76l4.11-12.95h7.12l-5.77,17.06,5.98,19.34h-7.64Z"/></g></svg>